<?xml version="1.0" encoding="UTF-8"?>
<svg width="1542px" height="1635px" viewBox="0 0 1542 1635" version="1.1" xmlns="http://www.w3.org/2000/svg" xmlns:xlink="http://www.w3.org/1999/xlink">
    <!-- Generator: Sketch 43.1 (39012) - http://www.bohemiancoding.com/sketch -->
    <title>network</title>
    <desc>Created with Sketch.</desc>
    <defs></defs>
    <g id="Page-1" stroke="none" stroke-width="1" fill="none" fill-rule="evenodd" opacity="0.15">
        <g id="network" transform="translate(3.000000, 4.000000)" stroke-width="6" stroke="#FFFFFF">
            <g id="Group-5" transform="translate(0.000000, 0.165547)">
                <polygon id="Stroke-1" points="786.26656 0.609691224 1223.23098 146.813411 1534.72646 537.04067 1534.72646 1052.4208 1247.26814 1447.85058 786.761502 1626.1248 293.982849 1447.85058 0.630015206 1042.99002 0.630015206 537.313582 317.616892 146.68032"></polygon>
                <polygon id="Stroke-3" points="575.078919 202.186652 317.746371 146.680875 236.347437 413.194591 0.889387788 537.313389 116.554288 791.766646 0.889387788 1042.99057 254.935759 1178.61204 294.080227 1447.85039 575.078919 1430.99565 786.696885 1626.12461 977.837091 1416.51413 1247.13858 1447.85039 1291.78041 1182.75208 1534.46626 1052.42061 1405.37895 797.972586 1534.46626 537.041225 1295.91015 427.673124 1223.10141 146.813219 988.162941 187.705129 786.266144 0.609498952"></polygon>
            </g>
            <g id="Group-10" transform="translate(115.524138, 187.359480)">
                <polygon id="Stroke-6" points="370.223316 216.173218 120.562743 226.258244 199.18164 461.963581 0.963688543 604.636644 207.537427 785.161454 139.4116 992.576677 377.96845 992.576677 459.55476 1243.8649 678.487866 1082.47458 862.312932 1229.33553 942.864566 981.084473 1176.25625 995.56151 1097.77098 772.140196 1289.85553 610.780524 1091.57487 451.488253 1180.38599 240.479567 918.079391 232.206226 872.638782 0.510823997 672.291758 137.045241 459.55476 14.9930951"></polygon>
                <polygon id="Stroke-8" points="198.643465 461.829582 198.643465 784.546682 378.151412 992.451651 678.579006 1082.44301 942.377901 981.076088 1096.70576 772.138541 1096.70576 452.520672 918.063779 232.206814 672.283612 137.045081 373.404298 209.409331"></polygon>
            </g>
        </g>
    </g>
</svg>
